<?xml version="1.0" encoding="UTF-8"?>
<svg width="836px" height="339px" viewBox="0 0 836 339" version="1.1" xmlns="http://www.w3.org/2000/svg" xmlns:xlink="http://www.w3.org/1999/xlink">
    <title>Table Contents</title>
    <g id="Page-1" stroke="none" stroke-width="1" fill="none" fill-rule="evenodd">
        <g id="Desktop-HD" transform="translate(-353.000000, -502.000000)">
            <g id="Hero" transform="translate(356.000000, 144.000000)">
                <g id="Table-Contents" transform="translate(0.000000, 362.000000)">
                    <g id="Computer" transform="translate(326.000000, 0.000000)">
                        <g id="Computer" transform="translate(-3.326403, -3.326403)">
                            <g id="Monitor">
                                <path d="M396.257796,0 L10.3950104,0 C4.88364491,0 0.415800416,4.46784449 0.415800416,9.97920998 L0.415800416,280.526681 C0.415800416,286.038046 4.88364491,290.505891 10.3950104,290.505891 L396.257796,290.505891 C401.769162,290.505891 406.237006,286.038046 406.237006,280.526681 L406.237006,9.97920998 C406.237006,4.46784449 401.769162,0 396.257796,0 Z M10.3950104,6.65280665 L396.257796,6.65280665 C398.094918,6.65280665 399.5842,8.14208815 399.5842,9.97920998 L399.5842,280.526681 C399.5842,282.363802 398.094918,283.853084 396.257796,283.853084 L10.3950104,283.853084 C8.55788857,283.853084 7.06860707,282.363802 7.06860707,280.526681 L7.06860707,9.97920998 C7.06860707,8.14208815 8.55788857,6.65280665 10.3950104,6.65280665 Z" id="Rectangle" fill="#FAFAFA" fill-rule="nonzero"></path>
                                <path d="M389.60499,15.8004158 L17.8794179,15.8004158 L17.8794179,218.953569 L389.60499,218.953569 L389.60499,15.8004158 Z M382.952183,22.4532225 L382.952183,212.300208 L24.5322245,212.300208 L24.5322245,22.4532225 L382.952183,22.4532225 Z" id="Rectangle" fill="#FAFAFA" fill-rule="nonzero"></path>
                                <polygon id="Line" fill="#FAFAFA" fill-rule="nonzero" points="402.079002 228.690229 402.079002 235.343035 0.415800416 235.343035 0.415800416 228.690229"></polygon>
                                <circle id="Oval" fill="#FFAC00" cx="204.573805" cy="259.459459" r="9.97920998"></circle>
                            </g>
                            <g id="Stand" transform="translate(89.397089, 282.744283)" fill="#FAFAFA" fill-rule="nonzero">
                                <path d="M216.216216,27.4428274 L13.3056133,27.4428274 C5.95712599,27.4428274 3.59259861e-12,33.3999534 3.59259861e-12,40.7484407 C3.59259861e-12,40.7484407 3.59259861e-12,45.1836452 3.59259861e-12,54.0540541 C8.87040887,54.0540541 13.3056133,54.0540541 13.3056133,54.0540541 C148.579349,54.0540541 216.216216,54.0540541 216.216216,54.0540541 C216.216216,54.0540541 220.651421,54.0540541 229.52183,54.0540541 C229.52183,45.1836452 229.52183,40.7484407 229.52183,40.7484407 C229.52183,33.3999534 223.564704,27.4428274 216.216216,27.4428274 Z M13.3056133,34.0956341 L216.216216,34.0956341 C219.89046,34.0956341 222.869023,37.0741971 222.869023,40.7484407 C222.869023,40.7484407 222.869023,42.966043 222.869023,47.4012474 C218.433818,47.4012474 216.216216,47.4012474 216.216216,47.4012474 L13.3056133,47.4012474 C13.3056133,47.4012474 11.0880111,47.4012474 6.65280665,47.4012474 C6.65280665,42.966043 6.65280665,40.7484407 6.65280665,40.7484407 C6.65280665,36.3132363 8.87040887,34.0956341 13.3056133,34.0956341 Z" id="Rectangle"></path>
                                <polygon id="Line-2" transform="translate(36.590437, 17.879418) rotate(-0.650668) translate(-36.590437, -17.879418) " points="42.077375 2.09532167 47.8007282 5.4869384 31.1034982 33.6635141 25.380145 30.2718974"></polygon>
                                <polygon id="Line-2" transform="translate(192.931393, 17.879418) rotate(-60.650668) translate(-192.931393, -17.879418) " points="198.418331 2.09532167 204.141685 5.4869384 187.444455 33.6635141 181.721101 30.2718974"></polygon>
                            </g>
                        </g>
                    </g>
                    <g id="Mug" transform="translate(741.000000, 206.000000)">
                        <path d="M0,43.7874251 L61.153002,43.7874251 C61.153002,58.6951098 61.153002,81.5244511 61.153002,112.275449 C61.153002,124.309243 61.153002,124.309243 30.5762712,124.309243 C0,124.309243 0,124.309243 0,112.275449 C0,95.8736823 0,73.044341 0,43.7874251 Z" id="Line-2" stroke="#FAFAFA" stroke-width="8" stroke-linecap="square"></path>
                        <path d="M60.0338983,59.207904 C73.8305085,59.207904 87.6271186,56.8095784 87.6271186,78.9287413 C87.6271186,101.047904 73.8305085,101.047904 60.0338983,101.047904" id="Path" stroke="#FAFAFA" stroke-width="8"></path>
                        <path d="M18.2711864,0 C14.2937853,2.90254759 12.3050847,6.54880014 12.3050847,10.9387577 C12.3050847,17.5236939 18.2711864,18.9989475 18.2711864,24.6336866 C18.2711864,28.3901793 16.2824859,32.1549984 12.3050847,35.9281437" id="Path-2" stroke="#FFAC00" stroke-width="4"></path>
                        <path d="M33.1864407,0 C29.2090395,2.90254759 27.220339,6.54880014 27.220339,10.9387577 C27.220339,17.5236939 33.1864407,18.9989475 33.1864407,24.6336866 C33.1864407,28.3901793 31.1977401,32.1549984 27.220339,35.9281437" id="Path-2" stroke="#FFAC00" stroke-width="4"></path>
                        <path d="M48.1016949,0 C44.1242938,2.90254759 42.1355932,6.54880014 42.1355932,10.9387577 C42.1355932,17.5236939 48.1016949,18.9989475 48.1016949,24.6336866 C48.1016949,28.3901793 46.1129944,32.1549984 42.1355932,35.9281437" id="Path-2" stroke="#FFAC00" stroke-width="4"></path>
                    </g>
                    <g id="Books" transform="translate(0.000000, 233.000000)">
                        <g id="Book" transform="translate(20.000000, 70.000000)" stroke="#FAFAFA">
                            <path d="M0,3.55271368e-15 L144.755859,3.55271368e-15 C151.85612,3.55271368e-15 155.40625,4.7652965 155.40625,14.2958895 C155.40625,23.8264825 151.85612,28.3860011 144.755859,27.9744454 L0,27.9744454 C3.78190104,23.658468 5.67285156,19.0989494 5.67285156,14.2958895 C5.67285156,9.4928296 3.78190104,4.7275331 0,3.55271368e-15 Z" id="Path" stroke-width="7"></path>
                            <line x1="21" y1="14" x2="139" y2="14" id="Path-2" stroke-width="4"></line>
                        </g>
                        <g id="Book" transform="translate(34.000000, 0.000000)" stroke="#FAFAFA">
                            <path d="M0,3.55271368e-15 L144.755859,3.55271368e-15 C151.85612,3.55271368e-15 155.40625,4.7652965 155.40625,14.2958895 C155.40625,23.8264825 151.85612,28.3860011 144.755859,27.9744454 L0,27.9744454 C3.78190104,23.658468 5.67285156,19.0989494 5.67285156,14.2958895 C5.67285156,9.4928296 3.78190104,4.7275331 0,3.55271368e-15 Z" id="Path" stroke-width="7"></path>
                            <line x1="21" y1="14" x2="139" y2="14" id="Path-2" stroke-width="4"></line>
                        </g>
                        <g id="Book" transform="translate(78.000000, 49.000000) rotate(-180.000000) translate(-78.000000, -49.000000) translate(0.000000, 35.000000)" stroke="#FFAC00">
                            <path d="M0,3.55271368e-15 L144.755859,3.55271368e-15 C151.85612,3.55271368e-15 155.40625,4.7652965 155.40625,14.2958895 C155.40625,23.8264825 151.85612,28.3860011 144.755859,27.9744454 L0,27.9744454 C3.78190104,23.658468 5.67285156,19.0989494 5.67285156,14.2958895 C5.67285156,9.4928296 3.78190104,4.7275331 0,3.55271368e-15 Z" id="Path" stroke-width="7"></path>
                            <line x1="21" y1="14" x2="139" y2="14" id="Path-2" stroke-width="4"></line>
                        </g>
                    </g>
                    <g id="Keyboard" transform="translate(232.000000, 307.000000)" stroke-width="7">
                        <polyline id="Path-4" stroke="#FFAC00" points="25.4296875 17.0117188 35.8610412 15.5910769 40.2226562 14.9970703"></polyline>
                        <polyline id="Path-4" stroke="#FFAC00" points="50.9121094 13.0146484 61.3434631 11.5940066 65.7050781 11"></polyline>
                        <polyline id="Path-4" stroke="#FFAC00" points="75.9121094 9.01464844 86.3434631 7.59400659 90.7050781 7"></polyline>
                        <polyline id="Path-4" stroke="#FFAC00" points="100.912109 6.01464844 111.343463 4.59400659 115.705078 4"></polyline>
                        <polyline id="Path-4" stroke="#FFAC00" points="125.912109 2.01464844 136.343463 0.594006594 140.705078 0"></polyline>
                        <path d="M-1.42108547e-14,24 L152.464844,2.01464844 C155.947917,2.57714844 157.689453,4.35384115 157.689453,7.34472656 C154.378255,10.3857422 152.636719,15.9375 152.464844,24" id="Path-3" stroke="#FAFAFA"></path>
                    </g>
                    <text id="const-Jay-=-{-title:" font-family="Menlo, Monaco, Consolas, Liberation Mono, Courier New, monospace" font-size="14" font-weight="normal" line-spacing="14">
                        <tspan x="393" y="70.2050781" fill="#FAFAFA">
                            const
                            <tspan font-family="Menlo, Monaco, Consolas, Liberation Mono, Courier New, monospace" font-weight="bold" fill="#FFAC00">Jay</tspan>
                            = {
                        </tspan>
                        <tspan x="410" y="94.2050781" line-spacing="10" fill="#FAFAFA">title: ‘Software Developer’,</tspan>
                        <tspan x="410" y="114.205078" line-spacing="10" fill="#FAFAFA">experience: ‘3+ years’,</tspan>
                        <tspan x="410" y="134.205078" line-spacing="10" fill="#FAFAFA">age: 26,</tspan>
                        <tspan x="410" y="154.205078" line-spacing="10" fill="#FAFAFA">developer: true,</tspan>
                        <tspan x="393" y="174.205078" line-spacing="10" fill="#FAFAFA">};</tspan>
                    </text>
                </g>
            </g>
        </g>
    </g>
</svg>